<?xml version="1.0" encoding="UTF-8"?>
<svg width="135px" height="40px" viewBox="0 0 135 40" version="1.1" xmlns="http://www.w3.org/2000/svg" xmlns:xlink="http://www.w3.org/1999/xlink">
    <title>编组 4</title>
    <defs>
        <polygon id="path-1" points="0 0 135 0 135 39.9998 0 39.9998"></polygon>
    </defs>
    <g id="页面-2" stroke="none" stroke-width="1" fill="none" fill-rule="evenodd">
        <g id="编组-4">
            <g id="ios备份" fill-rule="nonzero">
                <g id="路径">
                    <path d="M9.53468,0 C9.16798,0 8.80568,0 8.43995,0.00213 C8.1338,0.00413 7.83009,0.00994 7.521,0.01483 C6.84951368,0.0227318036 6.17960647,0.0818062599 5.5171,0.19154 C4.85552408,0.303662628 4.21467252,0.51504574 3.61622,0.81854 C3.01849941,1.12460171 2.47234502,1.52229753 1.99757,1.9972 C1.5203025,2.47076699 1.12246318,3.01814638 0.81935,3.61829 C0.515400242,4.21723912 0.304640498,4.8590683 0.19435,5.52161 C0.0830109412,6.18331491 0.0230983806,6.85265054 0.01515,7.52361 C0.00587,7.83021 0.00489,8.13783 0,8.44447 L0,31.55873 C0.00489,31.86923 0.00587,32.17003 0.01515,32.48063 C0.023100818,33.1515562 0.0830133796,33.8208584 0.19435,34.48253 C0.304335953,35.145459 0.515108158,35.7876566 0.81935,36.38683 C1.12232555,36.9850329 1.52022081,37.5301962 1.99757,38.00113 C2.47054482,38.478144 3.01705224,38.8761104 3.61622,39.17983 C4.21466797,39.4841365 4.85545044,39.6967778 5.5171,39.81063 C6.1797191,39.9194847 6.84955741,39.9785832 7.521,39.98743 C7.83009,39.99423 8.1338,39.99813 8.43995,39.99813 C8.80567,40.00013 9.168,40.00013 9.53468,40.00013 L125.4707,40.00013 C125.8301,40.00013 126.1953,40.00013 126.5547,39.99813 C126.8594,39.99813 127.1719,39.99423 127.4766,39.98743 C128.146773,39.9790537 128.81535,39.9199515 129.4766,39.81063 C130.140384,39.6959764 130.783464,39.4833914 131.3848,39.17983 C131.983427,38.8759346 132.52943,38.4779791 133.002,38.00113 C133.478118,37.5283518 133.876862,36.9835873 134.1836,36.38683 C134.485559,35.7872208 134.694325,35.1450745 134.8027,34.48253 C134.914215,33.8207676 134.976253,33.1516143 134.9883,32.48063 C134.9922,32.17003 134.9922,31.86923 134.9922,31.55873 C135,31.19543 135,30.83413 135,30.46493 L135,9.53626 C135,9.17005 135,8.80677 134.9922,8.44447 C134.9922,8.13783 134.9922,7.83021 134.9883,7.52357 C134.976256,6.85255244 134.914217,6.18336567 134.8027,5.52157 C134.694023,4.8594116 134.485269,4.21763328 134.1836,3.61825 C133.566324,2.41532608 132.587503,1.4361554 131.3848,0.81845 C130.783462,0.51569738 130.140313,0.30437041 129.4766,0.19145 C128.815465,0.0812327831 128.146818,0.0221377649 127.4766,0.01469 C127.1719,0.00981 126.8594,0.00395 126.5547,0.002 C126.1953,0 125.8301,0 125.4707,0 L9.53468,0 Z" fill="#A6A6A6"></path>
                    <path d="M8.44483,39.12513 C8.14015,39.12513 7.84283,39.12123 7.54054,39.11443 C6.91432177,39.1062707 6.28956717,39.051755 5.6714,38.95133 C5.0949903,38.8520582 4.53660424,38.6673945 4.01466,38.40343 C3.4975017,38.1416527 3.02581177,37.7984029 2.61766,37.38683 C2.20360033,36.9801053 1.85887673,36.508374 1.59715,35.99033 C1.33253926,35.4689191 1.14941288,34.9100296 1.05415,34.33313 C0.951274358,33.7132449 0.895614374,33.0864432 0.88765,32.45813 C0.88131,32.24723 0.87301,31.54503 0.87301,31.54503 L0.87301,8.44447 C0.87301,8.44447 0.88185,7.75306 0.8877,7.54993 C0.895325827,6.92261205 0.950662148,6.2967831 1.05323,5.67786 C1.14866872,5.09938008 1.33193687,4.53887887 1.59669,4.01576 C1.85745482,3.49807385 2.20026458,3.02599029 2.61183,2.61781 C3.02293283,2.20575142 3.49613161,1.86073412 4.01417,1.59534 C4.53491467,1.3322236 5.09224545,1.14886255 5.66749,1.0514 C6.28768733,0.949966139 6.91461084,0.895126084 7.543,0.88734 L8.44532,0.87513 L126.5498,0.87513 L127.4629,0.88783 C128.085573,0.895229198 128.706802,0.949580006 129.3213,1.05042 C129.902368,1.14910507 130.465507,1.33374553 130.9922,1.59827 C132.030018,2.13311605 132.874472,2.97929295 133.4072,4.0182 C133.667727,4.53770756 133.848169,5.09363676 133.9424,5.66712 C134.046189,6.29112138 134.104277,6.92186834 134.1162,7.55433 C134.1191,7.83753 134.1191,8.14173 134.1191,8.44447 C134.127,8.81947 134.127,9.1764 134.127,9.53626 L134.127,30.46493 C134.127,30.82823 134.127,31.18273 134.1191,31.54013 C134.1191,31.86533 134.1191,32.16323 134.1152,32.46983 C134.103535,33.0910057 134.046416,33.7104942 133.9443,34.32333 C133.85099,34.9043912 133.66886,35.4676431 133.4043,35.99333 C133.140723,36.5057511 132.797979,36.9733962 132.3887,37.37903 C131.980181,37.7928146 131.507659,38.1380727 130.9893,38.40153 C130.464066,38.6675237 129.901756,38.8528703 129.3213,38.95133 C128.70318,39.052291 128.078365,39.1068102 127.4521,39.11443 C127.1592,39.12123 126.8525,39.12513 126.5547,39.12513 L125.4707,39.12713 L8.44483,39.12513 Z" fill="#000000"></path>
                </g>
            </g>
            <g id="编组">
                <g>
                    <mask id="mask-2" fill="white">
                        <use xlink:href="#path-1"></use>
                    </mask>
                    <g id="Clip-2"></g>
                </g>
                <path d="M47.4184,10.2431 C47.4184,11.0811 47.1704,11.7481 46.6734,12.2461 C46.1084,12.8381 45.3734,13.1341 44.4694,13.1341 C43.6034,13.1341 42.8664,12.8341 42.2614,12.2331 C41.6544,11.6331 41.3524,10.8881 41.3524,10.0001 C41.3524,9.1111 41.6544,8.3671 42.2614,7.7661 C42.8664,7.1661 43.6034,6.8651 44.4694,6.8651 C44.8984,6.8651 45.3104,6.9491 45.7004,7.1171 C46.0914,7.2851 46.4044,7.5081 46.6394,7.7871 L46.1114,8.3151 C45.7144,7.8411 45.1674,7.6031 44.4694,7.6031 C43.8374,7.6031 43.2914,7.8251 42.8304,8.2691 C42.3694,8.7141 42.1394,9.2901 42.1394,10.0001 C42.1394,10.7091 42.3694,11.2861 42.8304,11.7301 C43.2914,12.1751 43.8374,12.3961 44.4694,12.3961 C45.1394,12.3961 45.6974,12.1731 46.1454,11.7261 C46.4354,11.4351 46.6034,11.0311 46.6474,10.5111 L44.4694,10.5111 L44.4694,9.7901 L47.3764,9.7901 C47.4044,9.9471 47.4184,10.0971 47.4184,10.2431" id="Fill-5" fill="#FFFFFF"></path>
                <path d="M47.4184,10.2431 C47.4184,11.0811 47.1704,11.7481 46.6734,12.2461 C46.1084,12.8381 45.3734,13.1341 44.4694,13.1341 C43.6034,13.1341 42.8664,12.8341 42.2614,12.2331 C41.6544,11.6331 41.3524,10.8881 41.3524,10.0001 C41.3524,9.1111 41.6544,8.3671 42.2614,7.7661 C42.8664,7.1661 43.6034,6.8651 44.4694,6.8651 C44.8984,6.8651 45.3104,6.9491 45.7004,7.1171 C46.0914,7.2851 46.4044,7.5081 46.6394,7.7871 L46.1114,8.3151 C45.7144,7.8411 45.1674,7.6031 44.4694,7.6031 C43.8374,7.6031 43.2914,7.8251 42.8304,8.2691 C42.3694,8.7141 42.1394,9.2901 42.1394,10.0001 C42.1394,10.7091 42.3694,11.2861 42.8304,11.7301 C43.2914,12.1751 43.8374,12.3961 44.4694,12.3961 C45.1394,12.3961 45.6974,12.1731 46.1454,11.7261 C46.4354,11.4351 46.6034,11.0311 46.6474,10.5111 L44.4694,10.5111 L44.4694,9.7901 L47.3764,9.7901 C47.4044,9.9471 47.4184,10.0971 47.4184,10.2431 Z" id="Stroke-7" stroke="#FFFFFF" stroke-width="0.2"></path>
                <polygon id="Fill-9" fill="#FFFFFF" points="52.0277 7.7372 49.2957 7.7372 49.2957 9.6392 51.7597 9.6392 51.7597 10.3602 49.2957 10.3602 49.2957 12.2622 52.0277 12.2622 52.0277 13.0002 48.5247 13.0002 48.5247 7.0002 52.0277 7.0002"></polygon>
                <polygon id="Stroke-11" stroke="#FFFFFF" stroke-width="0.2" points="52.0277 7.7372 49.2957 7.7372 49.2957 9.6392 51.7597 9.6392 51.7597 10.3602 49.2957 10.3602 49.2957 12.2622 52.0277 12.2622 52.0277 13.0002 48.5247 13.0002 48.5247 7.0002 52.0277 7.0002"></polygon>
                <polygon id="Fill-13" fill="#FFFFFF" points="55.2787 12.9999 54.5077 12.9999 54.5077 7.7369 52.8317 7.7369 52.8317 6.9999 56.9547 6.9999 56.9547 7.7369 55.2787 7.7369"></polygon>
                <polygon id="Stroke-15" stroke="#FFFFFF" stroke-width="0.2" points="55.2787 12.9999 54.5077 12.9999 54.5077 7.7369 52.8317 7.7369 52.8317 6.9999 56.9547 6.9999 56.9547 7.7369 55.2787 7.7369"></polygon>
                <polygon id="Fill-17" fill="#FFFFFF" points="59.938 13 60.709 13 60.709 7 59.938 7"></polygon>
                <polygon id="Stroke-19" stroke="#FFFFFF" stroke-width="0.2" points="59.938 13 60.709 13 60.709 7 59.938 7"></polygon>
                <polygon id="Fill-20" fill="#FFFFFF" points="64.1283 12.9999 63.3563 12.9999 63.3563 7.7369 61.6813 7.7369 61.6813 6.9999 65.8043 6.9999 65.8043 7.7369 64.1283 7.7369"></polygon>
                <polygon id="Stroke-21" stroke="#FFFFFF" stroke-width="0.2" points="64.1283 12.9999 63.3563 12.9999 63.3563 7.7369 61.6813 7.7369 61.6813 6.9999 65.8043 6.9999 65.8043 7.7369 64.1283 7.7369"></polygon>
                <path d="M69.7792,11.7221 C70.2232,12.1721 70.7662,12.3961 71.4092,12.3961 C72.0512,12.3961 72.5952,12.1721 73.0392,11.7221 C73.4832,11.2721 73.7062,10.6981 73.7062,10.0001 C73.7062,9.3021 73.4832,8.7271 73.0392,8.2781 C72.5952,7.8281 72.0512,7.6031 71.4092,7.6031 C70.7662,7.6031 70.2232,7.8281 69.7792,8.2781 C69.3362,8.7271 69.1132,9.3021 69.1132,10.0001 C69.1132,10.6981 69.3362,11.2721 69.7792,11.7221 M73.6092,12.2241 C73.0192,12.8311 72.2862,13.1341 71.4092,13.1341 C70.5322,13.1341 69.7992,12.8311 69.2102,12.2241 C68.6202,11.6191 68.3262,10.8771 68.3262,10.0001 C68.3262,9.1231 68.6202,8.3811 69.2102,7.7751 C69.7992,7.1691 70.5322,6.8661 71.4092,6.8661 C72.2812,6.8661 73.0122,7.1701 73.6052,7.7791 C74.1972,8.3881 74.4932,9.1281 74.4932,10.0001 C74.4932,10.8771 74.1982,11.6191 73.6092,12.2241" id="Fill-22" fill="#FFFFFF"></path>
                <path d="M69.7792,11.7221 C70.2232,12.1721 70.7662,12.3961 71.4092,12.3961 C72.0512,12.3961 72.5952,12.1721 73.0392,11.7221 C73.4832,11.2721 73.7062,10.6981 73.7062,10.0001 C73.7062,9.3021 73.4832,8.7271 73.0392,8.2781 C72.5952,7.8281 72.0512,7.6031 71.4092,7.6031 C70.7662,7.6031 70.2232,7.8281 69.7792,8.2781 C69.3362,8.7271 69.1132,9.3021 69.1132,10.0001 C69.1132,10.6981 69.3362,11.2721 69.7792,11.7221 Z M73.6092,12.2241 C73.0192,12.8311 72.2862,13.1341 71.4092,13.1341 C70.5322,13.1341 69.7992,12.8311 69.2102,12.2241 C68.6202,11.6191 68.3262,10.8771 68.3262,10.0001 C68.3262,9.1231 68.6202,8.3811 69.2102,7.7751 C69.7992,7.1691 70.5322,6.8661 71.4092,6.8661 C72.2812,6.8661 73.0122,7.1701 73.6052,7.7791 C74.1972,8.3881 74.4932,9.1281 74.4932,10.0001 C74.4932,10.8771 74.1982,11.6191 73.6092,12.2241 Z" id="Stroke-23" stroke="#FFFFFF" stroke-width="0.2"></path>
                <polygon id="Fill-24" fill="#FFFFFF" points="75.5751 12.9999 75.5751 6.9999 76.5141 6.9999 79.4301 11.6679 79.4631 11.6679 79.4301 10.5109 79.4301 6.9999 80.2011 6.9999 80.2011 12.9999 79.3961 12.9999 76.3451 8.1059 76.3121 8.1059 76.3451 9.2629 76.3451 12.9999"></polygon>
                <polygon id="Stroke-25" stroke="#FFFFFF" stroke-width="0.2" points="75.5751 12.9999 75.5751 6.9999 76.5141 6.9999 79.4301 11.6679 79.4631 11.6679 79.4301 10.5109 79.4301 6.9999 80.2011 6.9999 80.2011 12.9999 79.3961 12.9999 76.3451 8.1059 76.3121 8.1059 76.3451 9.2629 76.3451 12.9999"></polygon>
                <path d="M106.936,30 L108.802,30 L108.802,17.499 L106.936,17.499 L106.936,30 Z M123.743,22.002 L121.604,27.422 L121.54,27.422 L119.32,22.002 L117.31,22.002 L120.639,29.577 L118.741,33.791 L120.687,33.791 L125.818,22.002 L123.743,22.002 Z M113.161,28.58 C112.549,28.58 111.697,28.274 111.697,27.518 C111.697,26.553 112.758,26.184 113.675,26.184 C114.495,26.184 114.881,26.361 115.38,26.602 C115.235,27.76 114.238,28.58 113.161,28.58 L113.161,28.58 Z M113.386,21.729 C112.035,21.729 110.635,22.324 110.056,23.642 L111.713,24.334 C112.067,23.642 112.726,23.417 113.418,23.417 C114.383,23.417 115.364,23.996 115.38,25.025 L115.38,25.154 C115.042,24.961 114.318,24.672 113.434,24.672 C111.649,24.672 109.831,25.653 109.831,27.486 C109.831,29.159 111.295,30.236 112.935,30.236 C114.19,30.236 114.881,29.674 115.316,29.014 L115.38,29.014 L115.38,29.979 L117.181,29.979 L117.181,25.186 C117.181,22.967 115.525,21.729 113.386,21.729 L113.386,21.729 Z M101.854,23.524 L99.2,23.524 L99.2,19.238 L101.854,19.238 C103.249,19.238 104.041,20.394 104.041,21.381 C104.041,22.35 103.249,23.524 101.854,23.524 L101.854,23.524 Z M101.806,17.499 L97.335,17.499 L97.335,30 L99.2,30 L99.2,25.264 L101.806,25.264 C103.874,25.264 105.907,23.766 105.907,21.381 C105.907,18.996 103.874,17.499 101.806,17.499 L101.806,17.499 Z M77.425,28.582 C76.136,28.582 75.057,27.503 75.057,26.021 C75.057,24.523 76.136,23.427 77.425,23.427 C78.698,23.427 79.696,24.523 79.696,26.021 C79.696,27.503 78.698,28.582 77.425,28.582 L77.425,28.582 Z M79.567,22.702 L79.503,22.702 C79.084,22.203 78.279,21.751 77.264,21.751 C75.137,21.751 73.188,23.62 73.188,26.021 C73.188,28.405 75.137,30.258 77.264,30.258 C78.279,30.258 79.084,29.807 79.503,29.291 L79.567,29.291 L79.567,29.903 C79.567,31.531 78.698,32.4 77.296,32.4 C76.152,32.4 75.443,31.579 75.153,30.886 L73.526,31.563 C73.993,32.691 75.234,34.076 77.296,34.076 C79.487,34.076 81.34,32.787 81.34,29.646 L81.34,22.009 L79.567,22.009 L79.567,22.702 Z M82.628,30 L84.497,30 L84.497,17.498 L82.628,17.498 L82.628,30 Z M87.252,25.876 C87.204,24.232 88.525,23.395 89.475,23.395 C90.217,23.395 90.845,23.765 91.054,24.297 L87.252,25.876 Z M93.052,24.458 C92.697,23.507 91.618,21.751 89.411,21.751 C87.22,21.751 85.4,23.475 85.4,26.005 C85.4,28.389 87.204,30.258 89.62,30.258 C91.57,30.258 92.697,29.066 93.165,28.373 L91.715,27.406 C91.231,28.115 90.571,28.582 89.62,28.582 C88.67,28.582 87.993,28.147 87.558,27.294 L93.245,24.941 L93.052,24.458 Z M47.744,23.057 L47.744,24.861 L52.061,24.861 C51.932,25.876 51.594,26.617 51.079,27.132 C50.45,27.761 49.467,28.453 47.744,28.453 C45.085,28.453 43.007,26.311 43.007,23.652 C43.007,20.994 45.085,18.852 47.744,18.852 C49.178,18.852 50.225,19.415 50.998,20.14 L52.271,18.868 C51.191,17.837 49.758,17.047 47.744,17.047 C44.103,17.047 41.042,20.012 41.042,23.652 C41.042,27.294 44.103,30.258 47.744,30.258 C49.709,30.258 51.191,29.613 52.351,28.405 C53.543,27.213 53.914,25.538 53.914,24.184 C53.914,23.765 53.882,23.379 53.817,23.057 L47.744,23.057 Z M58.822,28.582 C57.534,28.582 56.422,27.519 56.422,26.005 C56.422,24.474 57.534,23.427 58.822,23.427 C60.111,23.427 61.223,24.474 61.223,26.005 C61.223,27.519 60.111,28.582 58.822,28.582 L58.822,28.582 Z M58.822,21.751 C56.47,21.751 54.553,23.54 54.553,26.005 C54.553,28.453 56.47,30.258 58.822,30.258 C61.174,30.258 63.092,28.453 63.092,26.005 C63.092,23.54 61.174,21.751 58.822,21.751 L58.822,21.751 Z M68.136,28.582 C66.847,28.582 65.735,27.519 65.735,26.005 C65.735,24.474 66.847,23.427 68.136,23.427 C69.425,23.427 70.536,24.474 70.536,26.005 C70.536,27.519 69.425,28.582 68.136,28.582 L68.136,28.582 Z M68.136,21.751 C65.784,21.751 63.867,23.54 63.867,26.005 C63.867,28.453 65.784,30.258 68.136,30.258 C70.488,30.258 72.405,28.453 72.405,26.005 C72.405,23.54 70.488,21.751 68.136,21.751 L68.136,21.751 Z" id="Fill-26" fill="#FFFFFF"></path>
                <path d="M20.7172,19.424 L10.0702,30.724 C10.0712,30.726 10.0712,30.729 10.0722,30.731 C10.3992,31.958 11.5192,32.861 12.8492,32.861 C13.3812,32.861 13.8802,32.717 14.3082,32.465 L14.3422,32.445 L26.3262,25.53 L20.7172,19.424 Z" id="Fill-27" fill="#EA4335"></path>
                <path d="M31.4881,17.4998 L31.4781,17.4928 L26.3041,14.4938 L20.4751,19.6808 L26.3251,25.5288 L31.4711,22.5598 C32.3731,22.0718 32.9861,21.1208 32.9861,20.0248 C32.9861,18.9348 32.3821,17.9888 31.4881,17.4998" id="Fill-28" fill="#FBBC04"></path>
                <path d="M10.07,9.277 C10.006,9.513 9.972,9.761 9.972,10.017 L9.972,29.985 C9.972,30.241 10.006,30.489 10.071,30.724 L21.083,19.713 L10.07,9.277 Z" id="Fill-29" fill="#4285F4"></path>
                <path d="M20.7958,20.0009 L26.3058,14.4919 L14.3358,7.5519 C13.9008,7.2909 13.3928,7.1409 12.8498,7.1409 C11.5198,7.1409 10.3978,8.0459 10.0708,9.2739 C10.0708,9.2749 10.0698,9.2759 10.0698,9.2769 L20.7958,20.0009 Z" id="Fill-30" fill="#34A853"></path>
            </g>
        </g>
    </g>
</svg>